<svg version="1.1" xmlns="http://www.w3.org/2000/svg" width="32" height="32" viewBox="0 0 32 32">
<path d="M2.134 9.598h16.005c0.589 0 1.067-0.478 1.067-1.067s-0.478-1.067-1.067-1.067h-1.067v-4.268h4.268v1.067c0 0.589 0.478 1.067 1.067 1.067s1.067-0.478 1.067-1.067v-1.067c0-1.178-0.954-2.134-2.134-2.134h-19.206c-1.18 0-2.134 0.956-2.134 2.134v4.268c0 1.178 0.954 2.134 2.134 2.134zM8.536 3.196h6.402v4.268h-6.402v-4.268zM2.134 3.196h4.268v4.268h-4.268v-4.268zM22.407 20.268c-0.589 0-1.067 0.478-1.067 1.067v1.067h-4.268v-4.268h1.067c0.589 0 1.067-0.478 1.067-1.067s-0.478-1.067-1.067-1.067h-16.005c-1.18 0-2.134 0.956-2.134 2.134v10.67c0 1.18 0.954 2.134 2.134 2.134h19.206c1.18 0 2.134-0.954 2.134-2.134v-7.469c0-0.589-0.478-1.067-1.067-1.067zM6.402 28.804h-4.268v-4.268h4.268v4.268zM6.402 22.402h-4.268v-4.268h4.268v4.268zM14.938 28.804h-6.402v-4.268h6.402v4.268zM14.938 22.402h-6.402v-4.268h6.402v4.268zM21.34 28.804h-4.268v-4.268h4.268v4.268zM28.049 12.799l3.651-3.651c0.397-0.397 0.397-1.041 0-1.438-0.399-0.399-1.041-0.399-1.44 0l-3.651 3.651-3.587-3.587c-0.397-0.397-1.041-0.397-1.438 0-0.399 0.397-0.399 1.041 0 1.438l3.589 3.587-3.587 3.587c-0.399 0.397-0.399 1.041 0 1.438 0.397 0.397 1.041 0.397 1.438 0l3.589-3.587 3.649 3.649c0.399 0.399 1.041 0.399 1.44 0 0.397-0.397 0.397-1.041 0-1.438l-3.653-3.649z"></path>
</svg>
