<svg xmlns="http://www.w3.org/2000/svg" viewBox="0 0 32 32" width="32px" height="32px">
    <path d="M16 24.789c-3.756 0-6.911-2.254-8.188-5.559h16.376c-1.277 3.305-4.432 5.559-8.188 5.559zM10.366 14.423c-1.352 0-2.404-1.052-2.404-2.404s1.052-2.404 2.404-2.404 2.404 1.052 2.404 2.404-1.052 2.404-2.404 2.404zM21.634 14.423c-1.352 0-2.404-1.052-2.404-2.404s1.052-2.404 2.404-2.404 2.404 1.052 2.404 2.404-1.052 2.404-2.404 2.404zM16 28.845c7.061 0 12.845-5.784 12.845-12.845s-5.784-12.845-12.845-12.845-12.845 5.784-12.845 12.845 5.784 12.845 12.845 12.845zM16 0c8.864 0 16 7.136 16 16s-7.136 16-16 16-16-7.136-16-16 7.136-16 16-16z"></path>
</svg>