<svg xmlns="http://www.w3.org/2000/svg" width="32" height="32" viewBox="0 0 32 32">
<path d="M30.036 29.714c-1.571 0-3.161-0.125-4.75-0.125-1.571 0-3.143 0.125-4.714 0.125-0.607 0-0.893-0.661-0.893-1.179 0-1.589 1.786-0.911 2.714-1.518 0.589-0.375 0.589-1.875 0.589-2.5l-0.018-6.982c0-0.196 0-0.375-0.018-0.554-0.286-0.089-0.607-0.071-0.893-0.071h-12.054c-0.304 0-0.625-0.018-0.911 0.071-0.018 0.179-0.018 0.357-0.018 0.554l-0.018 6.625c0 0.679 0 2.536 0.661 2.929 0.929 0.571 3.036-0.232 3.036 1.375 0 0.536-0.25 1.25-0.875 1.25-1.661 0-3.321-0.125-4.964-0.125-1.518 0-3.036 0.125-4.554 0.125-0.589 0-0.857-0.679-0.857-1.179 0-1.554 1.643-0.911 2.518-1.518 0.571-0.393 0.589-1.929 0.589-2.554l-0.018-1.018v-14.518c0-0.857 0.125-3.607-0.679-4.089-0.893-0.554-2.804 0.304-2.804-1.304 0-0.518 0.232-1.25 0.857-1.25 1.643 0 3.304 0.125 4.946 0.125 1.5 0 3.018-0.125 4.518-0.125 0.643 0 0.893 0.714 0.893 1.25 0 1.536-1.768 0.786-2.643 1.339-0.625 0.375-0.625 2.214-0.625 2.857l0.018 5.714c0 0.196 0 0.375 0.018 0.571 0.232 0.054 0.464 0.054 0.696 0.054h12.482c0.214 0 0.446 0 0.679-0.054 0.018-0.196 0.018-0.375 0.018-0.571l0.018-5.714c0-0.661 0-2.482-0.625-2.857-0.893-0.536-2.679 0.179-2.679-1.339 0-0.536 0.25-1.25 0.893-1.25 1.571 0 3.143 0.125 4.714 0.125 1.536 0 3.071-0.125 4.607-0.125 0.643 0 0.893 0.714 0.893 1.25 0 1.554-1.839 0.768-2.732 1.321-0.607 0.393-0.625 2.232-0.625 2.875l0.018 16.839c0 0.589 0.036 2.143 0.607 2.5 0.911 0.571 2.839-0.161 2.839 1.393 0 0.518-0.232 1.25-0.857 1.25z"></path>
</svg>
