<svg xmlns="http://www.w3.org/2000/svg" width="32" height="32" viewBox="0 0 32 32">
    <path d="M4.45 0h3.594c0.595 0 1.078 0.384 1.078 0.858v30.284c0 0.474-0.482 0.858-1.078 0.858h-3.594c-0.595 0-1.078-0.384-1.078-0.858v-30.284c-0-0.474 0.482-0.858 1.078-0.858zM23.888 0h3.673c0.59 0 1.068 0.384 1.068 0.858v30.284c0 0.474-0.478 0.858-1.068 0.858h-3.673c-0.59 0-1.068-0.384-1.068-0.858v-30.284c0-0.474 0.478-0.858 1.068-0.858z"></path>
    <path d="M25.069 14.167v3.667c0 0.589-0.384 1.065-0.858 1.065h-15.655c-0.474 0-0.858-0.477-0.858-1.065v-3.667c0-0.589 0.384-1.065 0.858-1.065h15.655c0.474 0 0.858 0.477 0.858 1.065z"></path>
</svg>
