<svg xmlns="http://www.w3.org/2000/svg" width="32" height="32" viewBox="0 0 32 32">
<path d="M23.273 27.636v2.909c0 0.795-0.659 1.455-1.455 1.455h-11.636c-0.795 0-1.455-0.659-1.455-1.455v-2.909c0-0.795 0.659-1.455 1.455-1.455h1.455v-8.727h-1.455c-0.795 0-1.455-0.659-1.455-1.455v-2.909c0-0.795 0.659-1.455 1.455-1.455h8.727c0.795 0 1.455 0.659 1.455 1.455v13.091h1.455c0.795 0 1.455 0.659 1.455 1.455zM20.364 1.455v4.364c0 0.795-0.659 1.455-1.455 1.455h-5.818c-0.795 0-1.455-0.659-1.455-1.455v-4.364c0-0.795 0.659-1.455 1.455-1.455h5.818c0.795 0 1.455 0.659 1.455 1.455z"></path>
</svg>
