<svg version="1.1" xmlns="http://www.w3.org/2000/svg" width="32" height="32" viewBox="0 0 32 32">
<path d="M2.133 9.601h19.197c1.18 0 2.133-0.956 2.133-2.133v-4.266c0-1.177-0.953-2.133-2.133-2.133h-19.197c-1.18 0-2.133 0.956-2.133 2.133v4.266c0 1.177 0.953 2.133 2.133 2.133zM17.064 3.202h4.266v4.266h-4.266v-4.266zM8.532 3.202h6.399v4.266h-6.399v-4.266zM2.133 3.202h4.266v4.266h-4.266v-4.266zM21.331 16h-19.197c-1.18 0-2.133 0.956-2.133 2.133v10.665c0 1.18 0.953 2.133 2.133 2.133h19.197c1.18 0 2.133-0.953 2.133-2.133v-10.665c0-1.177-0.953-2.133-2.133-2.133zM6.399 28.798h-4.266v-4.266h4.266v4.266zM6.399 22.399h-4.266v-4.266h4.266v4.266zM14.931 28.798h-6.399v-4.266h6.399v4.266zM14.931 22.399h-6.399v-4.266h6.399v4.266zM21.331 28.798h-4.266v-4.266h4.266v4.266zM21.331 22.399h-4.266v-4.266h4.266v4.266zM29.724 7.713l-5.606 3.75c-0.926 0.621-0.926 2.058 0 2.679l5.606 3.75c0.99 0.661 2.276-0.094 2.276-1.34v-7.5c0-1.246-1.288-2.001-2.276-1.34z"></path>
</svg>
