<svg version="1.1" xmlns="http://www.w3.org/2000/svg" width="32" height="32" viewBox="0 0 32 32">
<path d="M8.727 13.818v4.364c0 1.205-0.977 2.182-2.182 2.182h-4.364c-1.205 0-2.182-0.977-2.182-2.182v-4.364c0-1.205 0.977-2.182 2.182-2.182h4.364c1.205 0 2.182 0.977 2.182 2.182zM20.364 13.818v4.364c0 1.205-0.977 2.182-2.182 2.182h-4.364c-1.205 0-2.182-0.977-2.182-2.182v-4.364c0-1.205 0.977-2.182 2.182-2.182h4.364c1.205 0 2.182 0.977 2.182 2.182zM32 13.818v4.364c0 1.205-0.977 2.182-2.182 2.182h-4.364c-1.205 0-2.182-0.977-2.182-2.182v-4.364c0-1.205 0.977-2.182 2.182-2.182h4.364c1.205 0 2.182 0.977 2.182 2.182z"></path>
</svg>
