<svg version="1.1" xmlns="http://www.w3.org/2000/svg" width="32" height="32" viewBox="0 0 32 32">
<path d="M6.927 17.719s-3.040-3.431-2.915-6.942c0.16-4.453 4.738-10.257 11.359-10.257 1.884 0 5.653 0 10.328 5.52 0.249 0.302-15.075-3.84-18.772 11.679z"></path>
<path d="M17.477 9.301s3.946-1.298 7.271-0.178c4.222 1.422 8.693 6.826 6.809 13.182-0.533 1.804-1.609 5.413-8.231 8.32-0.356 0.16 10.613-13.351-5.849-21.323z"></path>
<path d="M10.944 24.332c-1.938 2.035-3.751 1.742-3.751 1.742l0.578-3.191c-5.235-3.44-6.373-10.328-6.453-10.106-2.444 6.817-0.916 11.377 0.027 13.004 3.315 5.733 11.982 7.351 17.484 3.893 2.969-1.867 4.533-7.057 4.533-7.057-5.298 2.338-9.342 2.569-12.417 1.715z"></path>
</svg>
