<svg xmlns="http://www.w3.org/2000/svg" width="32" height="32" viewBox="0 0 32 32">
    <path d="M7.024 13.003c3.862 0 6.993 3.131 6.993 6.993s-3.131 6.993-6.993 6.993-6.993-3.131-6.993-6.993l-0.031-0.999c0-7.724 6.262-13.986 13.986-13.986v3.996c-2.668 0-5.177 1.039-7.064 2.926-0.363 0.363-0.695 0.75-0.994 1.156 0.357-0.056 0.723-0.086 1.096-0.086zM25.007 13.003c3.862 0 6.993 3.131 6.993 6.993s-3.131 6.993-6.993 6.993-6.993-3.131-6.993-6.993l-0.031-0.999c0-7.724 6.262-13.986 13.986-13.986v3.996c-2.668 0-5.177 1.039-7.064 2.926-0.363 0.363-0.695 0.75-0.994 1.156 0.357-0.056 0.723-0.086 1.096-0.086z"></path>
</svg>