<svg version="1.1" xmlns="http://www.w3.org/2000/svg" width="32" height="32" viewBox="0 0 32 32">
<path d="M25.75 16q1.083 0 1.875-0.75t0.792-1.917-0.792-1.917-1.875-0.75-1.875 0.75-0.792 1.917 0.792 1.917 1.875 0.75zM20.417 8.917q1.083 0 1.875-0.792t0.792-1.875-0.792-1.875-1.875-0.792-1.875 0.792-0.792 1.875 0.792 1.875 1.875 0.792zM11.583 8.917q1.083 0 1.875-0.792t0.792-1.875-0.792-1.875-1.875-0.792-1.875 0.792-0.792 1.875 0.792 1.875 1.875 0.792zM6.25 16q1.083 0 1.875-0.75t0.792-1.917-0.792-1.917-1.875-0.75-1.875 0.75-0.792 1.917 0.792 1.917 1.875 0.75zM16 0q6.583 0 11.292 4.167t4.708 10.083q0 3.667-2.625 6.25t-6.292 2.583h-3.083q-1.167 0-1.917 0.792t-0.75 1.875q0 0.917 0.667 1.75t0.667 1.833q0 1.167-0.75 1.917t-1.917 0.75q-6.667 0-11.333-4.667t-4.667-11.333 4.667-11.333 11.333-4.667z"></path>
</svg>
