<svg version="1.1" xmlns="http://www.w3.org/2000/svg" width="32" height="32" viewBox="0 0 32 32">
<path d="M5.76 28.16c0 2.12 1.719 3.84 3.84 3.84h12.8c2.12 0 3.84-1.72 3.84-3.84l2.56-20.48h-25.6l2.56 20.48zM19.84 11.52h2.56v16.64h-2.56v-16.64zM14.72 11.52h2.56v16.64h-2.56v-16.64zM9.6 11.52h2.56v16.64h-2.56v-16.64zM28.16 2.56h-8.32c0 0-0.573-2.56-1.28-2.56h-5.12c-0.708 0-1.28 2.56-1.28 2.56h-8.32c-1.061 0-1.92 0.859-1.92 1.92s0 1.92 0 1.92h28.16c0 0 0-0.859 0-1.92s-0.86-1.92-1.92-1.92z"></path>
</svg>
