<svg xmlns="http://www.w3.org/2000/svg" width="32" height="32" viewBox="0 0 32 32">
    <path d="M21.334 16.532q0-0.233-0.15-0.384l-5.867-5.867q-0.15-0.15-0.384-0.15t-0.384 0.15l-5.85 5.85q-0.167 0.2-0.167 0.399 0 0.233 0.15 0.384t0.384 0.15h3.733v5.867q0 0.217 0.159 0.375t0.375 0.159h3.2q0.217 0 0.375-0.159t0.159-0.375v-5.867h3.734q0.217 0 0.375-0.159t0.159-0.375zM32 21.332q0 2.65-1.875 4.525t-4.525 1.875h-18.133q-3.083 0-5.275-2.192t-2.192-5.275q0-2.166 1.167-4t3.134-2.75q-0.034-0.5-0.034-0.717 0-3.533 2.5-6.033t6.033-2.5q2.6 0 4.759 1.45t3.142 3.849q1.184-1.033 2.767-1.033 1.767 0 3.017 1.25t1.25 3.017q0 1.267-0.683 2.3 2.166 0.516 3.558 2.258t1.392 3.975z"></path>
</svg>