<svg version="1.1" xmlns="http://www.w3.org/2000/svg" width="32" height="32" viewBox="0 0 32 32">
<path d="M32 6.857v-2.286c0-0.625-0.518-1.143-1.143-1.143h-29.714c-0.625 0-1.143 0.518-1.143 1.143v2.286c0 0.625 0.518 1.143 1.143 1.143h29.714c0.625 0 1.143-0.518 1.143-1.143zM25.143 13.714v-2.286c0-0.625-0.518-1.143-1.143-1.143h-16c-0.625 0-1.143 0.518-1.143 1.143v2.286c0 0.625 0.518 1.143 1.143 1.143h16c0.625 0 1.143-0.518 1.143-1.143zM29.714 20.571v-2.286c0-0.625-0.518-1.143-1.143-1.143h-25.143c-0.625 0-1.143 0.518-1.143 1.143v2.286c0 0.625 0.518 1.143 1.143 1.143h25.143c0.625 0 1.143-0.518 1.143-1.143zM22.857 27.429v-2.286c0-0.625-0.518-1.143-1.143-1.143h-11.429c-0.625 0-1.143 0.518-1.143 1.143v2.286c0 0.625 0.518 1.143 1.143 1.143h11.429c0.625 0 1.143-0.518 1.143-1.143z"></path>
</svg>
