<svg version="1.1" xmlns="http://www.w3.org/2000/svg" width="32" height="32" viewBox="0 0 32 32">
<path d="M7.521 32c-0.747 0-1.362-0.614-1.362-1.362s0.614-1.362 1.362-1.362h15.593v-5.53h-15.56c-0.747 0-1.362-0.614-1.362-1.362s0.614-1.362 1.362-1.362h15.56v-5.729h-15.56c-0.747 0-1.362-0.614-1.362-1.362s0.614-1.362 1.362-1.362h15.56v-1.876c0-0.747 0.614-1.362 1.362-1.362s1.362 0.614 1.362 1.362v20.027c0 0.697-0.565 1.262-1.262 1.262h-17.054zM15.458 7.257h13.085c0.482 0 0.88-0.399 0.88-0.88v-3.919c0-0.482-0.399-0.88-0.88-0.88h-13.085c-0.482 0-0.88 0.399-0.88 0.88v3.919c0 0.482 0.399 0.88 0.88 0.88zM7.438 8.669l-4.65-3.819c-0.282-0.232-0.282-0.664 0-0.897l4.65-3.819c0.382-0.316 0.947-0.033 0.947 0.448v2.74h3.354c0.316 0 0.581 0.266 0.581 0.581v1.013c0 0.316-0.266 0.581-0.581 0.581h-3.354v2.723c0 0.498-0.565 0.764-0.947 0.448z"></path>
</svg>
