<svg version="1.1" xmlns="http://www.w3.org/2000/svg" width="32" height="32" viewBox="0 0 32 32">
<path d="M11.429 6.095h-9.905c-0.842 0-1.524 0.682-1.524 1.524v1.524c0 0.841 0.682 1.524 1.524 1.524h9.905c0.841 0 1.524-0.682 1.524-1.524v-1.524c0-0.842-0.682-1.524-1.524-1.524zM11.429 13.714h-9.905c-0.842 0-1.524 0.682-1.524 1.524v1.524c0 0.841 0.682 1.524 1.524 1.524h9.905c0.841 0 1.524-0.682 1.524-1.524v-1.524c0-0.841-0.682-1.524-1.524-1.524zM11.429 21.333h-9.905c-0.842 0-1.524 0.682-1.524 1.524v1.524c0 0.841 0.682 1.524 1.524 1.524h9.905c0.841 0 1.524-0.682 1.524-1.524v-1.524c0-0.841-0.682-1.524-1.524-1.524zM30.476 6.095h-12.952c-0.841 0-1.524 0.682-1.524 1.524v16.762c0 0.841 0.682 1.524 1.524 1.524h12.952c0.841 0 1.524-0.682 1.524-1.524v-16.762c0-0.841-0.682-1.524-1.524-1.524z"></path>
</svg>
