<svg xmlns="http://www.w3.org/2000/svg" width="32" height="32" viewBox="0 0 32 32">
    <path d="M27.094 19.485v6.12c0 3.059-2.483 5.542-5.542 5.542h-16.010c-3.059 0-5.542-2.483-5.542-5.542v-16.010c0-3.059 2.483-5.542 5.542-5.542h16.010c0.769 0 1.54 0.154 2.251 0.481 0.174 0.077 0.308 0.25 0.346 0.443 0.039 0.211-0.019 0.404-0.174 0.558l-0.943 0.943c-0.115 0.115-0.289 0.193-0.443 0.193-0.058 0-0.115-0.019-0.174-0.039-0.289-0.077-0.578-0.115-0.866-0.115h-16.010c-1.693 0-3.079 1.386-3.079 3.079v16.010c0 1.693 1.386 3.079 3.079 3.079h16.010c1.693 0 3.079-1.386 3.079-3.079v-4.888c0-0.154 0.058-0.308 0.174-0.424l1.232-1.232c0.135-0.135 0.289-0.193 0.443-0.193 0.077 0 0.154 0.019 0.231 0.058 0.231 0.096 0.385 0.308 0.385 0.558zM31.54 10.076l-15.664 15.664c-0.615 0.615-1.578 0.615-2.194 0l-8.275-8.275c-0.615-0.615-0.615-1.578 0-2.194l2.116-2.116c0.615-0.615 1.578-0.615 2.194 0l5.060 5.060 12.451-12.451c0.615-0.615 1.578-0.615 2.194 0l2.116 2.116c0.615 0.615 0.615 1.578 0 2.194z"></path>
</svg>