<svg version="1.1" xmlns="http://www.w3.org/2000/svg" width="32" height="32" viewBox="0 0 32 32">
<path d="M2.783 5.565v20.87h26.435v-20.87h-26.435zM2.783 2.783h26.435c1.535 0 2.783 1.248 2.783 2.783v20.87c0 1.535-1.248 2.783-2.783 2.783h-26.435c-1.535 0-2.783-1.248-2.783-2.783v-20.87c0-1.535 1.248-2.783 2.783-2.783zM0 9.739h31.304v1.391h-31.304v-1.391zM4.87 6.957h1.391c0.383 0 0.696 0.313 0.696 0.696s-0.313 0.696-0.696 0.696h-1.391c-0.383 0-0.696-0.313-0.696-0.696s0.313-0.696 0.696-0.696zM9.043 6.957h1.391c0.383 0 0.696 0.313 0.696 0.696s-0.313 0.696-0.696 0.696h-1.391c-0.383 0-0.696-0.313-0.696-0.696s0.313-0.696 0.696-0.696z"></path>
<path d="M11.817 16.47v1.291l-4.635 1.965 4.635 1.965v1.291l-6.322-2.73v-1.052l6.322-2.73zM16.443 15.47h1.226l-3.648 8.739h-1.239l3.661-8.739zM19.33 16.47l6.322 2.73v1.052l-6.322 2.73v-1.291l4.635-1.965-4.635-1.965v-1.291z"></path>
</svg>
