<svg version="1.1" xmlns="http://www.w3.org/2000/svg" width="32" height="32" viewBox="0 0 32 32">
<path d="M9.598 29.866v-16.005c0-0.589-0.478-1.067-1.067-1.067s-1.067 0.478-1.067 1.067v1.067h-4.268v-4.268h1.067c0.589 0 1.067-0.478 1.067-1.067s-0.478-1.067-1.067-1.067h-1.067c-1.178 0-2.134 0.954-2.134 2.134v19.206c0 1.18 0.956 2.134 2.134 2.134h4.268c1.178 0 2.134-0.954 2.134-2.134zM3.196 23.464v-6.402h4.268v6.402h-4.268zM3.196 29.866v-4.268h4.268v4.268h-4.268zM20.268 9.593c0 0.589 0.478 1.067 1.067 1.067h1.067v4.268h-4.268v-1.067c0-0.589-0.478-1.067-1.067-1.067s-1.067 0.478-1.067 1.067v16.005c0 1.18 0.956 2.134 2.134 2.134h10.67c1.18 0 2.134-0.954 2.134-2.134v-19.206c0-1.18-0.954-2.134-2.134-2.134h-7.469c-0.589 0-1.067 0.478-1.067 1.067zM28.804 25.598v4.268h-4.268v-4.268h4.268zM22.402 25.598v4.268h-4.268v-4.268h4.268zM28.804 17.062v6.402h-4.268v-6.402h4.268zM22.402 17.062v6.402h-4.268v-6.402h4.268zM28.804 10.66v4.268h-4.268v-4.268h4.268zM12.799 3.951l-3.651-3.651c-0.397-0.397-1.041-0.397-1.438 0-0.399 0.399-0.399 1.041 0 1.44l3.651 3.651-3.587 3.587c-0.397 0.397-0.397 1.041 0 1.438 0.397 0.399 1.041 0.399 1.438 0l3.587-3.589 3.587 3.587c0.397 0.399 1.041 0.399 1.438 0 0.397-0.397 0.397-1.041 0-1.438l-3.587-3.589 3.649-3.649c0.399-0.399 0.399-1.041 0-1.44-0.397-0.397-1.041-0.397-1.438 0l-3.649 3.653z"></path>
</svg>
