<svg version="1.1" xmlns="http://www.w3.org/2000/svg" width="32" height="32" viewBox="0 0 32 32">
<path d="M15.931 22.315l2.081-2.081-2.727-2.727-2.081 2.081v1.005h1.722v1.722h1.005zM23.824 9.398c-0.161-0.161-0.431-0.143-0.592 0.018l-6.279 6.279c-0.161 0.161-0.179 0.431-0.018 0.592s0.431 0.143 0.592-0.018l6.279-6.279c0.161-0.161 0.179-0.431 0.018-0.592zM25.259 20.054v3.409c0 2.852-2.314 5.167-5.167 5.167h-14.926c-2.852 0-5.167-2.314-5.167-5.167v-14.926c0-2.852 2.314-5.167 5.167-5.167h14.926c0.718 0 1.435 0.143 2.099 0.449 0.161 0.072 0.287 0.233 0.323 0.413 0.036 0.197-0.018 0.377-0.161 0.52l-0.879 0.879c-0.161 0.161-0.377 0.215-0.574 0.144-0.269-0.072-0.538-0.108-0.807-0.108h-14.926c-1.579 0-2.87 1.292-2.87 2.87v14.926c0 1.579 1.292 2.87 2.87 2.87h14.926c1.579 0 2.87-1.292 2.87-2.87v-2.26c0-0.143 0.054-0.287 0.161-0.395l1.148-1.148c0.179-0.179 0.413-0.215 0.628-0.126s0.359 0.287 0.359 0.52zM23.537 6.815l5.167 5.167-12.055 12.055h-5.167v-5.167zM31.502 9.183l-1.65 1.65-5.167-5.167 1.65-1.65c0.664-0.664 1.776-0.664 2.44 0l2.727 2.727c0.664 0.664 0.664 1.776 0 2.44z"></path>
</svg>
