<svg xmlns="http://www.w3.org/2000/svg" width="32" height="32" viewBox="0 0 32 32">
<path d="M19.652 25v6c0 0.55-0.45 1-1 1h-6c-0.55 0-1-0.45-1-1v-6c0-0.55 0.45-1 1-1h6c0.55 0 1 0.45 1 1zM27.552 10c0 4.75-3.225 6.575-5.6 7.9-1.475 0.85-2.4 2.575-2.4 3.3v0c0 0.55-0.425 1.2-1 1.2h-6c-0.55 0-0.9-0.85-0.9-1.4v-1.125c0-3.025 3-5.625 5.2-6.625 1.925-0.875 2.725-1.7 2.725-3.3 0-1.4-1.825-2.65-3.85-2.65-1.125 0-2.15 0.35-2.7 0.725-0.6 0.425-1.2 1.025-2.675 2.875-0.2 0.25-0.5 0.4-0.775 0.4-0.225 0-0.425-0.075-0.625-0.2l-4.1-3.125c-0.425-0.325-0.525-0.875-0.25-1.325 2.7-4.475 6.5-6.65 11.6-6.65 5.35 0 11.35 4.275 11.35 10z"></path>
</svg>
