<svg version="1.1" xmlns="http://www.w3.org/2000/svg" width="32" height="32" viewBox="0 0 32 32">
<path d="M6.286 16c0 0.143-0.054 0.304-0.161 0.411l-5.143 5.143c-0.107 0.107-0.268 0.161-0.411 0.161-0.304 0-0.571-0.268-0.571-0.571v-10.286c0-0.304 0.268-0.571 0.571-0.571 0.143 0 0.304 0.054 0.411 0.161l5.143 5.143c0.107 0.107 0.161 0.268 0.161 0.411zM32 24.571v3.429c0 0.304-0.268 0.571-0.571 0.571h-30.857c-0.304 0-0.571-0.268-0.571-0.571v-3.429c0-0.304 0.268-0.571 0.571-0.571h30.857c0.304 0 0.571 0.268 0.571 0.571zM32 17.714v3.429c0 0.304-0.268 0.571-0.571 0.571h-19.429c-0.304 0-0.571-0.268-0.571-0.571v-3.429c0-0.304 0.268-0.571 0.571-0.571h19.429c0.304 0 0.571 0.268 0.571 0.571zM32 10.857v3.429c0 0.304-0.268 0.571-0.571 0.571h-19.429c-0.304 0-0.571-0.268-0.571-0.571v-3.429c0-0.304 0.268-0.571 0.571-0.571h19.429c0.304 0 0.571 0.268 0.571 0.571zM32 4v3.429c0 0.304-0.268 0.571-0.571 0.571h-30.857c-0.304 0-0.571-0.268-0.571-0.571v-3.429c0-0.304 0.268-0.571 0.571-0.571h30.857c0.304 0 0.571 0.268 0.571 0.571z"></path>
</svg>
