<svg version="1.1" xmlns="http://www.w3.org/2000/svg" width="32" height="32" viewBox="0 0 32 32">
<path d="M9.601 29.867v-19.197c0-1.18-0.956-2.133-2.133-2.133h-4.266c-1.177 0-2.133 0.953-2.133 2.133v19.197c0 1.18 0.956 2.133 2.133 2.133h4.266c1.177 0 2.133-0.953 2.133-2.133zM3.202 14.936v-4.266h4.266v4.266h-4.266zM3.202 23.468v-6.399h4.266v6.399h-4.266zM3.202 29.867v-4.266h4.266v4.266h-4.266zM16 10.669v19.197c0 1.18 0.956 2.133 2.133 2.133h10.665c1.18 0 2.133-0.953 2.133-2.133v-19.197c0-1.18-0.953-2.133-2.133-2.133h-10.665c-1.177 0-2.133 0.953-2.133 2.133zM28.798 25.601v4.266h-4.266v-4.266h4.266zM22.399 25.601v4.266h-4.266v-4.266h4.266zM28.798 17.069v6.399h-4.266v-6.399h4.266zM22.399 17.069v6.399h-4.266v-6.399h4.266zM28.798 10.669v4.266h-4.266v-4.266h4.266zM22.399 10.669v4.266h-4.266v-4.266h4.266zM7.713 2.276l3.75 5.606c0.621 0.926 2.058 0.926 2.679 0l3.75-5.606c0.661-0.99-0.094-2.276-1.34-2.276h-7.5c-1.246 0-2.001 1.288-1.34 2.276z"></path>
</svg>
