<svg xmlns="http://www.w3.org/2000/svg" width="32" height="32" viewBox="0 0 32 32">
    <path d="M29.187 2.933l-0.12-0.121c-2.813-2.812-7.415-2.812-10.228 0l-6.516 6.517c-2.812 2.812-2.812 7.415 0 10.227l0.12 0.12c0.234 0.234 0.482 0.446 0.739 0.641l2.386-2.386c-0.278-0.164-0.542-0.361-0.78-0.599l-0.121-0.121c-1.527-1.527-1.527-4.012 0-5.539l6.517-6.516c1.527-1.527 4.012-1.527 5.539 0l0.121 0.12c1.527 1.527 1.527 4.012 0 5.539l-2.948 2.948c0.512 1.264 0.754 2.611 0.733 3.955l4.559-4.559c2.812-2.812 2.812-7.415-0-10.227zM19.557 12.323c-0.234-0.234-0.482-0.446-0.739-0.641l-2.386 2.385c0.278 0.164 0.542 0.361 0.78 0.599l0.121 0.121c1.527 1.527 1.527 4.012 0 5.539l-6.517 6.517c-1.527 1.527-4.012 1.527-5.539 0l-0.121-0.121c-1.527-1.527-1.527-4.012 0-5.539l2.948-2.948c-0.512-1.264-0.754-2.611-0.733-3.955l-4.559 4.559c-2.812 2.812-2.812 7.415 0 10.228l0.12 0.12c2.813 2.812 7.415 2.812 10.228 0l6.516-6.517c2.812-2.812 2.812-7.415 0-10.228l-0.12-0.12z"></path>
</svg>