<svg xmlns="http://www.w3.org/2000/svg" width="32" height="32" viewBox="0 0 32 32">
<path d="M9.846 26.462v-3.692c0-0.346-0.269-0.615-0.615-0.615h-6.154c-0.346 0-0.615 0.269-0.615 0.615v3.692c0 0.346 0.269 0.615 0.615 0.615h6.154c0.346 0 0.615-0.269 0.615-0.615zM9.846 19.077v-3.692c0-0.346-0.269-0.615-0.615-0.615h-6.154c-0.346 0-0.615 0.269-0.615 0.615v3.692c0 0.346 0.269 0.615 0.615 0.615h6.154c0.346 0 0.615-0.269 0.615-0.615zM19.692 26.462v-3.692c0-0.346-0.269-0.615-0.615-0.615h-6.154c-0.346 0-0.615 0.269-0.615 0.615v3.692c0 0.346 0.269 0.615 0.615 0.615h6.154c0.346 0 0.615-0.269 0.615-0.615zM9.846 11.692v-3.692c0-0.346-0.269-0.615-0.615-0.615h-6.154c-0.346 0-0.615 0.269-0.615 0.615v3.692c0 0.346 0.269 0.615 0.615 0.615h6.154c0.346 0 0.615-0.269 0.615-0.615zM19.692 19.077v-3.692c0-0.346-0.269-0.615-0.615-0.615h-6.154c-0.346 0-0.615 0.269-0.615 0.615v3.692c0 0.346 0.269 0.615 0.615 0.615h6.154c0.346 0 0.615-0.269 0.615-0.615zM29.538 26.462v-3.692c0-0.346-0.269-0.615-0.615-0.615h-6.154c-0.346 0-0.615 0.269-0.615 0.615v3.692c0 0.346 0.269 0.615 0.615 0.615h6.154c0.346 0 0.615-0.269 0.615-0.615zM19.692 11.692v-3.692c0-0.346-0.269-0.615-0.615-0.615h-6.154c-0.346 0-0.615 0.269-0.615 0.615v3.692c0 0.346 0.269 0.615 0.615 0.615h6.154c0.346 0 0.615-0.269 0.615-0.615zM29.538 19.077v-3.692c0-0.346-0.269-0.615-0.615-0.615h-6.154c-0.346 0-0.615 0.269-0.615 0.615v3.692c0 0.346 0.269 0.615 0.615 0.615h6.154c0.346 0 0.615-0.269 0.615-0.615zM29.538 11.692v-3.692c0-0.346-0.269-0.615-0.615-0.615h-6.154c-0.346 0-0.615 0.269-0.615 0.615v3.692c0 0.346 0.269 0.615 0.615 0.615h6.154c0.346 0 0.615-0.269 0.615-0.615zM32 5.538v20.923c0 1.692-1.385 3.077-3.077 3.077h-25.846c-1.692 0-3.077-1.385-3.077-3.077v-20.923c0-1.692 1.385-3.077 3.077-3.077h25.846c1.692 0 3.077 1.385 3.077 3.077z"></path>
</svg>
